<?xml version="1.0" encoding="UTF-8" standalone="no"?>
<svg width="18px" height="18px" viewBox="0 0 18 18" version="1.1" xmlns="http://www.w3.org/2000/svg" xmlns:xlink="http://www.w3.org/1999/xlink">
    <!-- Generator: Sketch 46.2 (44496) - http://www.bohemiancoding.com/sketch -->
    <title>success-icon</title>
    <desc>Created with Sketch.</desc>
    <defs></defs>
    <g id="Screens" stroke="none" stroke-width="1" fill="none" fill-rule="evenodd">
        <g id="success-icon" fill-rule="nonzero" fill="#FFFFFF">
            <path d="M9,18 C4.02943725,18 0,13.9705627 0,9 C0,4.02943725 4.02943725,0 9,0 C13.9705627,0 18,4.02943725 18,9 C18,13.9705627 13.9705627,18 9,18 Z M9,15.75 C12.7279221,15.75 15.75,12.7279221 15.75,9 C15.75,5.27207794 12.7279221,2.25 9,2.25 C5.27207794,2.25 2.25,5.27207794 2.25,9 C2.25,12.7279221 5.27207794,15.75 9,15.75 Z" id="Oval"></path>
            <path d="M6.88584192,8.50200417 C6.43880495,8.01276009 5.67979575,7.97854133 5.19054743,8.42557443 C4.70129911,8.87260752 4.66708005,9.63161014 5.11411703,10.1208542 L7.57070645,12.8093831 C8.11479006,13.4048365 9.07965604,13.3046662 9.48981499,12.6101454 L13.033085,6.61033806 C13.370085,6.03969694 13.1806775,5.30391075 12.6100315,4.9669136 C12.0393854,4.62991645 11.3035928,4.81932231 10.9665928,5.38996342 L8.24820694,9.99299721 L6.88584192,8.50200417 Z" id="Path-178"></path>
        </g>
    </g>
</svg>