<?xml version="1.0" encoding="UTF-8" standalone="no"?>
<svg width="18px" height="18px" viewBox="0 0 18 18" version="1.1" xmlns="http://www.w3.org/2000/svg" xmlns:xlink="http://www.w3.org/1999/xlink">
    <!-- Generator: Sketch 46.2 (44496) - http://www.bohemiancoding.com/sketch -->
    <title>Group 8 Copy 5</title>
    <desc>Created with Sketch.</desc>
    <defs></defs>
    <g id="Screens" stroke="none" stroke-width="1" fill="none" fill-rule="evenodd">
        <g id="Project" transform="translate(-896.000000, -560.000000)" fill-rule="nonzero" fill="#F46070">
            <g id="Group-17" transform="translate(134.000000, 332.000000)">
                <g id="Group-13-Copy" transform="translate(0.000000, 112.000000)">
                    <g id="Group-8-Copy-5" transform="translate(762.000000, 116.000000)">
                        <path d="M9,18 C4.02943725,18 0,13.9705627 0,9 C0,4.02943725 4.02943725,0 9,0 C13.9705627,0 18,4.02943725 18,9 C18,13.9705627 13.9705627,18 9,18 Z M9,15.6 C12.6450793,15.6 15.6,12.6450793 15.6,9 C15.6,5.35492065 12.6450793,2.4 9,2.4 C5.35492065,2.4 2.4,5.35492065 2.4,9 C2.4,12.6450793 5.35492065,15.6 9,15.6 Z" id="Oval"></path>
                        <g id="Group-14" transform="translate(4.870588, 4.800000)">
                            <path d="M0.356640566,2.04852814 L6.12225284,7.73058081 C6.59777359,8.19920996 7.36874507,8.19920996 7.84426582,7.73058081 C8.31978658,7.26195166 8.31978658,6.50215368 7.84426582,6.03352453 L2.07865355,0.351471863 C1.6031328,-0.117157288 0.832161322,-0.117157288 0.356640566,0.351471863 C-0.118880189,0.820101013 -0.118880189,1.57989899 0.356640566,2.04852814 Z" id="Line"></path>
                            <path d="M6.12225284,0.351471863 L0.356640566,6.03352453 C-0.118880189,6.50215368 -0.118880189,7.26195166 0.356640566,7.73058081 C0.832161322,8.19920996 1.6031328,8.19920996 2.07865355,7.73058081 L7.84426582,2.04852814 C8.31978658,1.57989899 8.31978658,0.820101013 7.84426582,0.351471863 C7.36874507,-0.117157288 6.59777359,-0.117157288 6.12225284,0.351471863 Z" id="Line"></path>
                        </g>
                    </g>
                </g>
            </g>
        </g>
    </g>
</svg>