<?xml version="1.0" encoding="UTF-8" standalone="no"?>
<svg width="18px" height="18px" viewBox="0 0 18 18" version="1.1" xmlns="http://www.w3.org/2000/svg" xmlns:xlink="http://www.w3.org/1999/xlink">
    <!-- Generator: Sketch 46.2 (44496) - http://www.bohemiancoding.com/sketch -->
    <title>Group 8 Copy 6</title>
    <desc>Created with Sketch.</desc>
    <defs></defs>
    <g id="Screens" stroke="none" stroke-width="1" fill="none" fill-rule="evenodd">
        <g id="Project" transform="translate(-896.000000, -625.000000)" fill="#FDD371">
            <g id="Group-17" transform="translate(134.000000, 332.000000)">
                <g id="Group-13-Copy" transform="translate(0.000000, 112.000000)">
                    <g id="Group-8-Copy-6" transform="translate(762.000000, 181.000000)">
                        <path d="M9,18 C4.02943725,18 0,13.9705627 0,9 C0,4.02943725 4.02943725,0 9,0 C13.9705627,0 18,4.02943725 18,9 C18,13.9705627 13.9705627,18 9,18 Z M9,15.75 C12.7279221,15.75 15.75,12.7279221 15.75,9 C15.75,5.27207794 12.7279221,2.25 9,2.25 C5.27207794,2.25 2.25,5.27207794 2.25,9 C2.25,12.7279221 5.27207794,15.75 9,15.75 Z" id="Oval" fill-rule="nonzero"></path>
                        <path d="M7.56,5.94369501 L7.452,3.6 L10.548,3.6 L10.44,5.94369501 L10.008,10.3460411 L7.992,10.3460411 L7.56,5.94369501 Z M7.2,12.7530792 C7.2,12.2885607 7.36799832,11.8979488 7.704,11.5812317 C8.04000168,11.2645145 8.47199736,11.1061584 9,11.1061584 C9.52800264,11.1061584 9.95999832,11.2645145 10.296,11.5812317 C10.6320017,11.8979488 10.8,12.2885607 10.8,12.7530792 C10.8,13.2175976 10.6320017,13.6082096 10.296,13.9249267 C9.95999832,14.2416438 9.52800264,14.4 9,14.4 C8.47199736,14.4 8.04000168,14.2416438 7.704,13.9249267 C7.36799832,13.6082096 7.2,13.2175976 7.2,12.7530792 Z" id="!"></path>
                    </g>
                </g>
            </g>
        </g>
    </g>
</svg>