<svg xmlns="http://www.w3.org/2000/svg" width="16.9" height="17" viewBox="0 0 16.9 17">
  <title>mark</title>
  <g id="Layer_2" data-name="Layer 2">
    <g id="Layer_1-2" data-name="Layer 1">
      <g id="Screens">
        <g id="Settings">
          <g id="Navbar_White-Navbar" data-name="Navbar/White-Navbar">
            <path id="albatross" d="M10.1,15.8l-1,.6-.9.4-.9.2H6.2a8,8,0,0,1-2.6-.4,5.8,5.8,0,0,1-1.9-1.1A4.8,4.8,0,0,1,.4,13.9a5.3,5.3,0,0,1,0-4.2A4.6,4.6,0,0,1,1.7,8.1,5.9,5.9,0,0,1,3.7,7a8.8,8.8,0,0,1,2.7-.4h2l1.7.3V6.5a2.2,2.2,0,0,0-.2-1.1,2,2,0,0,0-.7-.7l-1-.4H6.9a10.4,10.4,0,0,0-2.6.3l-2.2.8L.6,2.3A13.3,13.3,0,0,1,4,.6,11.7,11.7,0,0,1,7.7,0a11.2,11.2,0,0,1,2.8.3,5.7,5.7,0,0,1,2.2,1.1,5.1,5.1,0,0,1,1.5,2,7.6,7.6,0,0,1,.5,3v5.9h2.2v4.3H10.1ZM6.5,13.3a5.5,5.5,0,0,0,2-.4,6,6,0,0,0,1.6-.9V10H5.7l-.6.3-.4.5a1.4,1.4,0,0,0-.2.7A1.6,1.6,0,0,0,5,12.8,2.3,2.3,0,0,0,6.5,13.3Z" style="fill: #56d694"/>
          </g>
        </g>
      </g>
    </g>
  </g>
</svg>
