<?xml version="1.0" encoding="UTF-8" standalone="no"?>
<svg width="149px" height="28px" viewBox="0 0 149 28" version="1.1" xmlns="http://www.w3.org/2000/svg" xmlns:xlink="http://www.w3.org/1999/xlink">
    <!-- Generator: Sketch 46.2 (44496) - http://www.bohemiancoding.com/sketch -->
    <title>Group 3</title>
    <desc>Created with Sketch.</desc>
    <defs></defs>
    <g id="Symbols" stroke="none" stroke-width="1" fill="none" fill-rule="evenodd">
        <g id="Navbar/White-Navbar" transform="translate(-52.000000, -22.000000)">
            <g id="Group-3">
                <g transform="translate(52.000000, 22.000000)">
                    <path d="M10.1286574,26.5550172 C9.76224418,26.7853341 9.42724284,26.9816239 9.12364332,27.1438926 C8.8200438,27.3061613 8.51644884,27.4370212 8.21284932,27.5364762 C7.90924981,27.6359312 7.59518605,27.7092128 7.27064864,27.7563231 C6.94611122,27.8034333 6.5901723,27.8269881 6.20282119,27.8269881 C5.22920895,27.8269881 4.35768203,27.693511 3.58821428,27.4265528 C2.81874654,27.1595946 2.16968145,26.7931869 1.64099953,26.3273187 C1.11231761,25.8614505 0.706651929,25.3118389 0.423990309,24.6784675 C0.14132869,24.0450961 0,23.356773 0,22.6134776 C0,21.8597133 0.143945888,21.1635387 0.431841982,20.5249328 C0.719738075,19.8863269 1.13587255,19.3393325 1.68025789,18.8839332 C2.22464323,18.428534 2.89202871,18.0725951 3.68243435,17.8161058 C4.47283999,17.5596166 5.37577329,17.4313739 6.39126133,17.4313739 C7.1345567,17.4313739 7.81241097,17.4706318 8.42484448,17.5491489 C9.03727799,17.6276661 9.60520994,17.7245024 10.1286574,17.8396608 L10.1286574,17.3371538 C10.1286574,16.9288648 10.0501414,16.5755431 9.89310721,16.277178 C9.73607298,15.978813 9.51622835,15.7327964 9.23356673,15.5391208 C8.95090511,15.3454453 8.61066938,15.2041166 8.21284932,15.1151305 C7.81502927,15.0261444 7.3805744,14.9816521 6.90947171,14.9816521 C5.92539051,14.9816521 5.05909799,15.0784884 4.31056814,15.2721639 C3.5620383,15.4658395 2.84230886,15.7458797 2.15135824,16.1122929 L0.643837136,13.065844 C1.71166992,12.3330176 2.82921345,11.7729372 3.99650125,11.3855861 C5.16378905,10.998235 6.40172368,10.8045624 7.71034229,10.8045624 C8.72583033,10.8045624 9.6654044,10.9171019 10.5290927,11.1421843 C11.392781,11.3672667 12.133448,11.7336744 12.751116,12.2414184 C13.3687839,12.7491624 13.8529656,13.4113135 14.2036754,14.2278915 C14.5543851,15.0444695 14.7297374,16.0390048 14.7297374,17.211527 L14.7297374,23.131688 L16.9125023,23.131688 L16.9125023,27.4344045 L10.1286574,27.4344045 L10.1286574,26.5550172 Z M6.54829478,24.1209987 C7.29159014,24.1209987 7.96682722,24.0006076 8.57402625,23.7598218 C9.18122529,23.519036 9.69943048,23.2259098 10.1286574,22.8804345 L10.1286574,20.807593 L6.35985464,20.807593 C6.11906881,20.807593 5.883521,20.8442338 5.65320412,20.9175164 C5.42288725,20.990799 5.21612861,21.095487 5.032922,21.2315833 C4.8497154,21.3676796 4.70315231,21.5351803 4.59322835,21.7340903 C4.48330439,21.9330004 4.42834323,22.1633138 4.42834323,22.4250375 C4.42834323,22.9066091 4.60369549,23.3096576 4.95440528,23.634195 C5.30511507,23.9587325 5.83640625,24.1209987 6.54829478,24.1209987 Z M18.2881154,3 L25.6215774,3 L25.6215774,23.131688 L28.1341126,23.131688 L28.1341126,27.4344045 L18.2881154,27.4344045 L18.2881154,23.131688 L20.8006505,23.131688 L20.8006505,7.30271647 L18.2881154,7.30271647 L18.2881154,3 Z M27.6885472,3 L34.7864591,3 L34.7864591,11.5269162 C35.3517823,11.2547235 35.9328002,11.0453477 36.5295303,10.8987824 C37.1262604,10.7522171 37.7386847,10.6789356 38.3668217,10.6789356 C39.5707508,10.6789356 40.6856771,10.9040146 41.7116341,11.3541794 C42.7375911,11.8043442 43.622204,12.4167685 44.3654994,13.1914708 C45.1087947,13.966173 45.6924299,14.8717235 46.1164223,15.9081494 C46.5404147,16.9445754 46.7524078,18.0437985 46.7524078,19.2058518 C46.7524078,20.3783741 46.5456491,21.4828316 46.1321257,22.5192576 C45.7186022,23.5556835 45.1402014,24.4586168 44.3969061,25.2280845 C43.6536107,25.9975523 42.7689978,26.6047422 41.7430408,27.0496725 C40.7170838,27.4946029 39.5916887,27.7170647 38.3668217,27.7170647 C37.7072779,27.7170647 37.0791504,27.6542519 36.4824203,27.5286246 C35.8856902,27.4029972 35.3203754,27.2250277 34.7864591,26.9947108 L34.7864591,27.4344045 L29.9655322,27.4344045 L29.9655322,7.30271647 L27.6885472,7.30271647 L27.6885472,3 Z M38.0370514,15.0130588 C37.3461008,15.0130588 36.7258249,15.1700906 36.1762051,15.4841591 C35.6265853,15.7982276 35.1633412,16.2483856 34.7864591,16.8346468 L34.7864591,21.7026836 C35.1214654,22.2051932 35.5690063,22.6108589 36.129095,22.9196929 C36.6891838,23.2285269 37.3146941,23.3829415 38.0056447,23.3829415 C38.5395611,23.3829415 39.0472975,23.2861052 39.5288692,23.0924297 C40.0104408,22.8987541 40.4318097,22.6213311 40.7929884,22.2601524 C41.1541672,21.8989736 41.4394417,21.4645188 41.6488207,20.9567748 C41.8581997,20.4490307 41.9628876,19.8758644 41.9628876,19.2372585 C41.9628876,18.5881837 41.8581997,18.0019313 41.6488207,17.4784839 C41.4394417,16.9550364 41.1567844,16.5101128 40.8008401,16.1436996 C40.4448958,15.7772864 40.0287614,15.4972462 39.5524242,15.3035706 C39.076087,15.1098951 38.5709678,15.0130588 38.0370514,15.0130588 Z M57.3772909,26.5550172 C57.0108777,26.7853341 56.6758763,26.9816239 56.3722768,27.1438926 C56.0686773,27.3061613 55.7650823,27.4370212 55.4614828,27.5364762 C55.1578833,27.6359312 54.8438196,27.7092128 54.5192821,27.7563231 C54.1947447,27.8034333 53.8388058,27.8269881 53.4514547,27.8269881 C52.4778425,27.8269881 51.6063155,27.693511 50.8368478,27.4265528 C50.06738,27.1595946 49.418315,26.7931869 48.889633,26.3273187 C48.3609511,25.8614505 47.9552854,25.3118389 47.6726238,24.6784675 C47.3899622,24.0450961 47.2486335,23.356773 47.2486335,22.6134776 C47.2486335,21.8597133 47.3925794,21.1635387 47.6804755,20.5249328 C47.9683716,19.8863269 48.3845061,19.3393325 48.9288914,18.8839332 C49.4732767,18.428534 50.1406622,18.0725951 50.9310679,17.8161058 C51.7214735,17.5596166 52.6244068,17.4313739 53.6398948,17.4313739 C54.3831902,17.4313739 55.0610445,17.4706318 55.673478,17.5491489 C56.2859115,17.6276661 56.8538435,17.7245024 57.3772909,17.8396608 L57.3772909,17.3371538 C57.3772909,16.9288648 57.298775,16.5755431 57.1417407,16.277178 C56.9847065,15.978813 56.7648619,15.7327964 56.4822002,15.5391208 C56.1995386,15.3454453 55.8593029,15.2041166 55.4614828,15.1151305 C55.0636628,15.0261444 54.6292079,14.9816521 54.1581052,14.9816521 C53.174024,14.9816521 52.3077315,15.0784884 51.5592017,15.2721639 C50.8106718,15.4658395 50.0909424,15.7458797 49.3999917,16.1122929 L47.8924706,13.065844 C48.9603034,12.3330176 50.077847,11.7729372 51.2451348,11.3855861 C52.4124226,10.998235 53.6503572,10.8045624 54.9589758,10.8045624 C55.9744638,10.8045624 56.9140379,10.9171019 57.7777262,11.1421843 C58.6414145,11.3672667 59.3820815,11.7336744 59.9997495,12.2414184 C60.6174175,12.7491624 61.1015991,13.4113135 61.4523089,14.2278915 C61.8030187,15.0444695 61.9783709,16.0390048 61.9783709,17.211527 L61.9783709,23.131688 L64.1611358,23.131688 L64.1611358,27.4344045 L57.3772909,27.4344045 L57.3772909,26.5550172 Z M53.7969283,24.1209987 C54.5402237,24.1209987 55.2154607,24.0006076 55.8226598,23.7598218 C56.4298588,23.519036 56.948064,23.2259098 57.3772909,22.8804345 L57.3772909,20.807593 L53.6084881,20.807593 C53.3677023,20.807593 53.1321545,20.8442338 52.9018376,20.9175164 C52.6715208,20.990799 52.4647621,21.095487 52.2815555,21.2315833 C52.0983489,21.3676796 51.9517858,21.5351803 51.8418619,21.7340903 C51.7319379,21.9330004 51.6769767,22.1633138 51.6769767,22.4250375 C51.6769767,22.9066091 51.852329,23.3096576 52.2030388,23.634195 C52.5537486,23.9587325 53.0850398,24.1209987 53.7969283,24.1209987 Z M70.1188483,11.1657393 L73.3694407,11.1657393 L73.3694407,15.2800156 L70.0874416,15.2800156 L70.0560349,22.1580806 C70.0560349,22.5559007 70.0874413,22.877816 70.150255,23.1238363 C70.2130687,23.3698566 70.3046706,23.5661465 70.4250635,23.7127118 C70.5454564,23.8592771 70.6894023,23.9587306 70.8569055,24.0110753 C71.0244087,24.0634201 71.2180813,24.089592 71.4379293,24.089592 C71.8357493,24.089592 72.1864538,24.0503341 72.4900534,23.971817 C72.7936529,23.8932998 73.0972478,23.8016979 73.4008474,23.6970084 L74.0760912,26.727754 C73.5421748,27.0627603 72.9480709,27.3297145 72.2937616,27.5286246 C71.6394523,27.7275346 70.8621445,27.8269881 69.9618149,27.8269881 C69.323209,27.8269881 68.7134018,27.7170658 68.1323752,27.4972179 C67.5513485,27.2773699 67.0409949,26.9449858 66.6012991,26.5000555 C66.1616032,26.0551251 65.8108987,25.497662 65.549175,24.8276493 C65.2874512,24.1576365 65.1618257,23.3777115 65.1722947,22.4878509 L65.2194047,15.2800156 L62.8796064,15.2800156 L62.8796064,11.1657393 L65.2351081,11.1657393 L65.2665148,7.27130978 L70.150255,4.94721475 L70.1188483,11.1657393 Z M89.6946379,17.0859003 L85.2819981,17.0859003 L85.2819981,15.4056424 C84.8527712,15.4056424 84.4601915,15.4344316 84.1042472,15.4920108 C83.7483029,15.54959 83.4368564,15.6464263 83.1698982,15.7825227 C82.90294,15.918619 82.677861,16.1070572 82.4946544,16.3478431 C82.3114478,16.5886289 82.1832051,16.8869895 82.1099224,17.2429337 L82.1099224,23.131688 L85.4233282,23.131688 L85.4233282,27.4344045 L74.8078671,27.4344045 L74.8078671,23.131688 L77.2418855,23.131688 L77.2418855,15.4684558 L74.8392738,15.4684558 L74.8392738,11.1657393 L82.0785157,11.1657393 L82.0785157,12.3120835 C82.5391495,11.9456702 83.0573547,11.6630129 83.6331469,11.4641028 C84.208939,11.2651928 84.8370666,11.1657393 85.5175482,11.1657393 C86.2084989,11.1657393 86.9203767,11.1709737 87.6532031,11.1814426 C88.3860295,11.1919116 89.066501,11.197146 89.6946379,11.197146 L89.6946379,17.0859003 Z M90.6305573,19.2372585 C90.6305573,18.0542673 90.8451676,16.9445754 91.2743945,15.9081494 C91.7036214,14.8717235 92.3003425,13.966173 93.0645758,13.1914708 C93.828809,12.4167685 94.7395939,11.8043442 95.7969578,11.3541794 C96.8543216,10.9040146 98.0163575,10.6789356 99.2831003,10.6789356 C100.549843,10.6789356 101.714496,10.9040146 102.777095,11.3541794 C103.839693,11.8043442 104.753095,12.4167685 105.517328,13.1914708 C106.281561,13.966173 106.875665,14.8717235 107.299658,15.9081494 C107.72365,16.9445754 107.935643,18.0542673 107.935643,19.2372585 C107.935643,20.4202497 107.728885,21.5325589 107.315361,22.5742193 C106.901838,23.6158797 106.315585,24.5266646 105.556587,25.3066013 C104.797588,26.086538 103.886803,26.7015795 102.824205,27.1517443 C101.761606,27.6019091 100.58125,27.8269881 99.2831003,27.8269881 C97.9744817,27.8269881 96.788891,27.6019091 95.7262927,27.1517443 C94.6636944,26.7015795 93.7555267,26.0891552 93.0017624,25.3144529 C92.2479981,24.5397507 91.6643629,23.631583 91.2508394,22.5899226 C90.837316,21.5482622 90.6305573,20.4307187 90.6305573,19.2372585 Z M95.3258574,19.2372585 C95.3258574,19.8549265 95.4305453,20.4228584 95.6399243,20.9410714 C95.8493033,21.4592844 96.1345779,21.9068252 96.4957566,22.2837074 C96.8569353,22.6605896 97.275687,22.9537157 97.7520242,23.1630947 C98.2283614,23.3724737 98.738715,23.4771616 99.2831003,23.4771616 C99.8379546,23.4771616 100.353543,23.3750909 100.82988,23.1709464 C101.306217,22.9668019 101.719734,22.6762929 102.070444,22.2994107 C102.421154,21.9225286 102.69596,21.4749877 102.89487,20.9567748 C103.09378,20.4385618 103.193233,19.8653954 103.193233,19.2372585 C103.193233,18.5881837 103.09378,18.0019313 102.89487,17.4784839 C102.69596,16.9550364 102.421154,16.5101128 102.070444,16.1436996 C101.719734,15.7772864 101.306217,15.4972462 100.82988,15.3035706 C100.353543,15.1098951 99.8379546,15.0182932 99.2831003,15.0287621 C98.738715,15.0182932 98.2283614,15.1098951 97.7520242,15.3035706 C97.275687,15.4972462 96.8569353,15.7772864 96.4957566,16.1436996 C96.1345779,16.5101128 95.8493033,16.9550364 95.6399243,17.4784839 C95.4305453,18.0019313 95.3258574,18.5881837 95.3258574,19.2372585 Z M118.529093,15.056477 C118.366824,14.8261601 118.128659,14.6246359 117.81459,14.4518982 C117.500522,14.2791606 117.115794,14.1404491 116.660395,14.0357596 C116.204995,13.9310701 115.689407,13.8787262 115.113615,13.8787262 C114.893767,13.8787262 114.658219,13.8970465 114.406965,13.9336879 C114.15571,13.9703292 113.922779,14.0357591 113.708166,14.1299797 C113.493552,14.2242002 113.315583,14.3524429 113.174252,14.5147116 C113.032921,14.6769803 112.962257,14.883739 112.962257,15.1349937 C112.962257,15.2606211 112.980577,15.3810122 113.017219,15.4961707 C113.05386,15.6113291 113.124524,15.7212514 113.229214,15.8259409 C113.333903,15.9306304 113.477849,16.0274667 113.661056,16.1164528 C113.844262,16.2054389 114.082427,16.2761032 114.375558,16.3284479 L117.327787,16.9094717 C118.39562,17.1188507 119.290701,17.3805705 120.013059,17.6946389 C120.735416,18.0087074 121.316434,18.3751151 121.75613,18.7938731 C122.195826,19.212631 122.512507,19.6784923 122.706182,20.1914708 C122.899858,20.7044493 122.996694,21.2592952 122.996694,21.8560253 C122.996694,22.7877618 122.779467,23.6043275 122.345005,24.3057471 C121.910544,25.0071667 121.339995,25.5908018 120.633341,26.05667 C119.926687,26.5225383 119.131059,26.8732428 118.246432,27.1087941 C117.361806,27.3443455 116.469342,27.4621194 115.569012,27.4621194 C114.982751,27.4621194 114.45146,27.4254786 113.975123,27.352196 C113.498786,27.2789133 113.069565,27.1794598 112.687448,27.0538324 C112.305332,26.9282051 111.965096,26.7790248 111.666731,26.6062871 C111.368366,26.4335495 111.09356,26.242494 110.842305,26.033115 L108,26.033115 L108,21.6675852 L112.444047,21.6675852 L112.444047,21.7618052 C112.454516,22.0654048 112.548735,22.3297418 112.726707,22.5548242 C112.904679,22.7799066 113.13761,22.970962 113.425506,23.1279962 C113.713402,23.2850305 114.040551,23.4028044 114.406965,23.4813215 C114.773378,23.5598386 115.160723,23.5990966 115.569012,23.5990966 C116.511218,23.5990966 117.196923,23.4760883 117.62615,23.230068 C118.055377,22.9840477 118.269987,22.6673667 118.269987,22.2800156 C118.269987,21.9764161 118.1653,21.7173135 117.955921,21.5027001 C117.746542,21.2880866 117.3749,21.1179687 116.840983,20.9923413 L113.825941,20.3485042 C111.931061,19.982091 110.502071,19.3722839 109.538928,18.5190645 C108.575784,17.6658452 108.09422,16.5692393 108.09422,15.2292138 C108.09422,14.4440426 108.277424,13.7295476 108.643837,13.0857073 C109.01025,12.4418669 109.507518,11.8922553 110.135655,11.436856 C110.763792,10.9814568 111.499224,10.628135 112.341975,10.3768803 C113.184725,10.1256255 114.087659,10 115.050802,10 C115.710346,10 116.296598,10.039258 116.809576,10.1177751 C117.322555,10.1962922 117.783182,10.2983629 118.191471,10.4239903 C118.59976,10.5496177 118.958316,10.698798 119.26715,10.8715356 C119.575984,11.0442733 119.85079,11.22486 120.091575,11.413301 L122.823957,11.413301 L122.823957,15.7788309 L118.772495,15.7788309 C118.772495,15.5275761 118.691361,15.2867939 118.529093,15.056477 Z M134.529093,15.056477 C134.366824,14.8261601 134.128659,14.6246359 133.81459,14.4518982 C133.500522,14.2791606 133.115794,14.1404491 132.660395,14.0357596 C132.204995,13.9310701 131.689407,13.8787262 131.113615,13.8787262 C130.893767,13.8787262 130.658219,13.8970465 130.406965,13.9336879 C130.15571,13.9703292 129.922779,14.0357591 129.708166,14.1299797 C129.493552,14.2242002 129.315583,14.3524429 129.174252,14.5147116 C129.032921,14.6769803 128.962257,14.883739 128.962257,15.1349937 C128.962257,15.2606211 128.980577,15.3810122 129.017219,15.4961707 C129.05386,15.6113291 129.124524,15.7212514 129.229214,15.8259409 C129.333903,15.9306304 129.477849,16.0274667 129.661056,16.1164528 C129.844262,16.2054389 130.082427,16.2761032 130.375558,16.3284479 L133.327787,16.9094717 C134.39562,17.1188507 135.290701,17.3805705 136.013059,17.6946389 C136.735416,18.0087074 137.316434,18.3751151 137.75613,18.7938731 C138.195826,19.212631 138.512507,19.6784923 138.706182,20.1914708 C138.899858,20.7044493 138.996694,21.2592952 138.996694,21.8560253 C138.996694,22.7877618 138.779467,23.6043275 138.345005,24.3057471 C137.910544,25.0071667 137.339995,25.5908018 136.633341,26.05667 C135.926687,26.5225383 135.131059,26.8732428 134.246432,27.1087941 C133.361806,27.3443455 132.469342,27.4621194 131.569012,27.4621194 C130.982751,27.4621194 130.45146,27.4254786 129.975123,27.352196 C129.498786,27.2789133 129.069565,27.1794598 128.687448,27.0538324 C128.305332,26.9282051 127.965096,26.7790248 127.666731,26.6062871 C127.368366,26.4335495 127.09356,26.242494 126.842305,26.033115 L124,26.033115 L124,21.6675852 L128.444047,21.6675852 L128.444047,21.7618052 C128.454516,22.0654048 128.548735,22.3297418 128.726707,22.5548242 C128.904679,22.7799066 129.13761,22.970962 129.425506,23.1279962 C129.713402,23.2850305 130.040551,23.4028044 130.406965,23.4813215 C130.773378,23.5598386 131.160723,23.5990966 131.569012,23.5990966 C132.511218,23.5990966 133.196923,23.4760883 133.62615,23.230068 C134.055377,22.9840477 134.269987,22.6673667 134.269987,22.2800156 C134.269987,21.9764161 134.1653,21.7173135 133.955921,21.5027001 C133.746542,21.2880866 133.3749,21.1179687 132.840983,20.9923413 L129.825941,20.3485042 C127.931061,19.982091 126.502071,19.3722839 125.538928,18.5190645 C124.575784,17.6658452 124.09422,16.5692393 124.09422,15.2292138 C124.09422,14.4440426 124.277424,13.7295476 124.643837,13.0857073 C125.01025,12.4418669 125.507518,11.8922553 126.135655,11.436856 C126.763792,10.9814568 127.499224,10.628135 128.341975,10.3768803 C129.184725,10.1256255 130.087659,10 131.050802,10 C131.710346,10 132.296598,10.039258 132.809576,10.1177751 C133.322555,10.1962922 133.783182,10.2983629 134.191471,10.4239903 C134.59976,10.5496177 134.958316,10.698798 135.26715,10.8715356 C135.575984,11.0442733 135.85079,11.22486 136.091575,11.413301 L138.823957,11.413301 L138.823957,15.7788309 L134.772495,15.7788309 C134.772495,15.5275761 134.691361,15.2867939 134.529093,15.056477 Z" id="albatross" fill="#56D694"></path>
                    <path d="M125,0 L127.23,0 C127.570002,0 127.884999,0.02499975 128.175,0.075 C128.465001,0.12500025 128.718332,0.2133327 128.935,0.34 C129.151668,0.4666673 129.321666,0.6333323 129.445,0.84 C129.568334,1.0466677 129.63,1.3066651 129.63,1.62 C129.63,1.7666674 129.608334,1.9133326 129.565,2.06 C129.521666,2.2066674 129.456667,2.3433327 129.37,2.47 C129.283333,2.5966673 129.170001,2.7099995 129.03,2.81 C128.889999,2.9100005 128.726668,2.9833331 128.54,3.03 L128.54,3.07 C129.006669,3.1566671 129.358332,3.3233321 129.595,3.57 C129.831668,3.8166679 129.95,4.1599978 129.95,4.6 C129.95,4.933335 129.885001,5.2199988 129.755,5.46 C129.624999,5.7000012 129.445001,5.89833255 129.215,6.055 C128.984999,6.21166745 128.716668,6.32833295 128.41,6.405 C128.103332,6.48166705 127.773335,6.52 127.42,6.52 L125,6.52 L125,0 Z M127.16,2.63 C127.520002,2.63 127.781666,2.55833405 127.945,2.415 C128.108334,2.27166595 128.19,2.0766679 128.19,1.83 C128.19,1.5833321 128.106667,1.4066672 127.94,1.3 C127.773333,1.1933328 127.516668,1.14 127.17,1.14 L126.47,1.14 L126.47,2.63 L127.16,2.63 Z M127.3,5.38 C128.106671,5.38 128.51,5.0833363 128.51,4.49 C128.51,4.2033319 128.410001,3.99500065 128.21,3.865 C128.009999,3.73499935 127.706669,3.67 127.3,3.67 L126.47,3.67 L126.47,5.38 L127.3,5.38 Z M131.621429,0 L135.701429,0 L135.701429,1.24 L133.091429,1.24 L133.091429,2.55 L135.311429,2.55 L135.311429,3.78 L133.091429,3.78 L133.091429,5.28 L135.801429,5.28 L135.801429,6.52 L131.621429,6.52 L131.621429,0 Z M138.942857,1.24 L137.152857,1.24 L137.152857,0 L142.212857,0 L142.212857,1.24 L140.422857,1.24 L140.422857,6.52 L138.942857,6.52 L138.942857,1.24 Z M146.164286,3.82 L146.014286,3.22 C145.920952,2.8933317 145.830953,2.5466685 145.744286,2.18 C145.657619,1.8133315 145.570953,1.4600017 145.484286,1.12 L145.444286,1.12 C145.364286,1.4666684 145.28262,1.82166485 145.199286,2.185 C145.115952,2.54833515 145.02762,2.8933317 144.934286,3.22 L144.774286,3.82 L146.164286,3.82 Z M146.464286,4.97 L144.474286,4.97 L144.074286,6.52 L142.574286,6.52 L144.614286,0 L146.384286,0 L148.424286,6.52 L146.864286,6.52 L146.464286,4.97 Z" id="BETA" fill="#82A0AF"></path>
                </g>
            </g>
        </g>
    </g>
</svg>