<?xml version="1.0" encoding="UTF-8" standalone="no"?>
<svg width="139px" height="25px" viewBox="0 0 139 25" version="1.1" xmlns="http://www.w3.org/2000/svg" xmlns:xlink="http://www.w3.org/1999/xlink">
    <!-- Generator: Sketch 46.2 (44496) - http://www.bohemiancoding.com/sketch -->
    <title>albatross</title>
    <desc>Created with Sketch.</desc>
    <defs></defs>
    <g id="Screens" stroke="none" stroke-width="1" fill="none" fill-rule="evenodd">
        <g id="Settings" transform="translate(-52.000000, -25.000000)" fill="#56D694">
            <g id="Navbar/White-Navbar">
                <path d="M62.1286574,48.5550172 C61.7622442,48.7853341 61.4272428,48.9816239 61.1236433,49.1438926 C60.8200438,49.3061613 60.5164488,49.4370212 60.2128493,49.5364762 C59.9092498,49.6359312 59.5951861,49.7092128 59.2706486,49.7563231 C58.9461112,49.8034333 58.5901723,49.8269881 58.2028212,49.8269881 C57.2292089,49.8269881 56.357682,49.693511 55.5882143,49.4265528 C54.8187465,49.1595946 54.1696814,48.7931869 53.6409995,48.3273187 C53.1123176,47.8614505 52.7066519,47.3118389 52.4239903,46.6784675 C52.1413287,46.0450961 52,45.356773 52,44.6134776 C52,43.8597133 52.1439459,43.1635387 52.431842,42.5249328 C52.7197381,41.8863269 53.1358726,41.3393325 53.6802579,40.8839332 C54.2246432,40.428534 54.8920287,40.0725951 55.6824344,39.8161058 C56.47284,39.5596166 57.3757733,39.4313739 58.3912613,39.4313739 C59.1345567,39.4313739 59.812411,39.4706318 60.4248445,39.5491489 C61.037278,39.6276661 61.6052099,39.7245024 62.1286574,39.8396608 L62.1286574,39.3371538 C62.1286574,38.9288648 62.0501414,38.5755431 61.8931072,38.277178 C61.736073,37.978813 61.5162284,37.7327964 61.2335667,37.5391208 C60.9509051,37.3454453 60.6106694,37.2041166 60.2128493,37.1151305 C59.8150293,37.0261444 59.3805744,36.9816521 58.9094717,36.9816521 C57.9253905,36.9816521 57.059098,37.0784884 56.3105681,37.2721639 C55.5620383,37.4658395 54.8423089,37.7458797 54.1513582,38.1122929 L52.6438371,35.065844 C53.7116699,34.3330176 54.8292134,33.7729372 55.9965012,33.3855861 C57.163789,32.998235 58.4017237,32.8045624 59.7103423,32.8045624 C60.7258303,32.8045624 61.6654044,32.9171019 62.5290927,33.1421843 C63.392781,33.3672667 64.133448,33.7336744 64.751116,34.2414184 C65.3687839,34.7491624 65.8529656,35.4113135 66.2036754,36.2278915 C66.5543851,37.0444695 66.7297374,38.0390048 66.7297374,39.211527 L66.7297374,45.131688 L68.9125023,45.131688 L68.9125023,49.4344045 L62.1286574,49.4344045 L62.1286574,48.5550172 Z M58.5482948,46.1209987 C59.2915901,46.1209987 59.9668272,46.0006076 60.5740263,45.7598218 C61.1812253,45.519036 61.6994305,45.2259098 62.1286574,44.8804345 L62.1286574,42.807593 L58.3598546,42.807593 C58.1190688,42.807593 57.883521,42.8442338 57.6532041,42.9175164 C57.4228872,42.990799 57.2161286,43.095487 57.032922,43.2315833 C56.8497154,43.3676796 56.7031523,43.5351803 56.5932283,43.7340903 C56.4833044,43.9330004 56.4283432,44.1633138 56.4283432,44.4250375 C56.4283432,44.9066091 56.6036955,45.3096576 56.9544053,45.634195 C57.3051151,45.9587325 57.8364063,46.1209987 58.5482948,46.1209987 Z M70.2881154,25 L77.6215774,25 L77.6215774,45.131688 L80.1341126,45.131688 L80.1341126,49.4344045 L70.2881154,49.4344045 L70.2881154,45.131688 L72.8006505,45.131688 L72.8006505,29.3027165 L70.2881154,29.3027165 L70.2881154,25 Z M79.6885472,25 L86.7864591,25 L86.7864591,33.5269162 C87.3517823,33.2547235 87.9328002,33.0453477 88.5295303,32.8987824 C89.1262604,32.7522171 89.7386847,32.6789356 90.3668217,32.6789356 C91.5707508,32.6789356 92.6856771,32.9040146 93.7116341,33.3541794 C94.7375911,33.8043442 95.622204,34.4167685 96.3654994,35.1914708 C97.1087947,35.966173 97.6924299,36.8717235 98.1164223,37.9081494 C98.5404147,38.9445754 98.7524078,40.0437985 98.7524078,41.2058518 C98.7524078,42.3783741 98.5456491,43.4828316 98.1321257,44.5192576 C97.7186022,45.5556835 97.1402014,46.4586168 96.3969061,47.2280845 C95.6536107,47.9975523 94.7689978,48.6047422 93.7430408,49.0496725 C92.7170838,49.4946029 91.5916887,49.7170647 90.3668217,49.7170647 C89.7072779,49.7170647 89.0791504,49.6542519 88.4824203,49.5286246 C87.8856902,49.4029972 87.3203754,49.2250277 86.7864591,48.9947108 L86.7864591,49.4344045 L81.9655322,49.4344045 L81.9655322,29.3027165 L79.6885472,29.3027165 L79.6885472,25 Z M90.0370514,37.0130588 C89.3461008,37.0130588 88.7258249,37.1700906 88.1762051,37.4841591 C87.6265853,37.7982276 87.1633412,38.2483856 86.7864591,38.8346468 L86.7864591,43.7026836 C87.1214654,44.2051932 87.5690063,44.6108589 88.129095,44.9196929 C88.6891838,45.2285269 89.3146941,45.3829415 90.0056447,45.3829415 C90.5395611,45.3829415 91.0472975,45.2861052 91.5288692,45.0924297 C92.0104408,44.8987541 92.4318097,44.6213311 92.7929884,44.2601524 C93.1541672,43.8989736 93.4394417,43.4645188 93.6488207,42.9567748 C93.8581997,42.4490307 93.9628876,41.8758644 93.9628876,41.2372585 C93.9628876,40.5881837 93.8581997,40.0019313 93.6488207,39.4784839 C93.4394417,38.9550364 93.1567844,38.5101128 92.8008401,38.1436996 C92.4448958,37.7772864 92.0287614,37.4972462 91.5524242,37.3035706 C91.076087,37.1098951 90.5709678,37.0130588 90.0370514,37.0130588 Z M109.377291,48.5550172 C109.010878,48.7853341 108.675876,48.9816239 108.372277,49.1438926 C108.068677,49.3061613 107.765082,49.4370212 107.461483,49.5364762 C107.157883,49.6359312 106.84382,49.7092128 106.519282,49.7563231 C106.194745,49.8034333 105.838806,49.8269881 105.451455,49.8269881 C104.477842,49.8269881 103.606316,49.693511 102.836848,49.4265528 C102.06738,49.1595946 101.418315,48.7931869 100.889633,48.3273187 C100.360951,47.8614505 99.9552854,47.3118389 99.6726238,46.6784675 C99.3899622,46.0450961 99.2486335,45.356773 99.2486335,44.6134776 C99.2486335,43.8597133 99.3925794,43.1635387 99.6804755,42.5249328 C99.9683716,41.8863269 100.384506,41.3393325 100.928891,40.8839332 C101.473277,40.428534 102.140662,40.0725951 102.931068,39.8161058 C103.721473,39.5596166 104.624407,39.4313739 105.639895,39.4313739 C106.38319,39.4313739 107.061044,39.4706318 107.673478,39.5491489 C108.285911,39.6276661 108.853843,39.7245024 109.377291,39.8396608 L109.377291,39.3371538 C109.377291,38.9288648 109.298775,38.5755431 109.141741,38.277178 C108.984706,37.978813 108.764862,37.7327964 108.4822,37.5391208 C108.199539,37.3454453 107.859303,37.2041166 107.461483,37.1151305 C107.063663,37.0261444 106.629208,36.9816521 106.158105,36.9816521 C105.174024,36.9816521 104.307731,37.0784884 103.559202,37.2721639 C102.810672,37.4658395 102.090942,37.7458797 101.399992,38.1122929 L99.8924706,35.065844 C100.960303,34.3330176 102.077847,33.7729372 103.245135,33.3855861 C104.412423,32.998235 105.650357,32.8045624 106.958976,32.8045624 C107.974464,32.8045624 108.914038,32.9171019 109.777726,33.1421843 C110.641414,33.3672667 111.382081,33.7336744 111.999749,34.2414184 C112.617417,34.7491624 113.101599,35.4113135 113.452309,36.2278915 C113.803019,37.0444695 113.978371,38.0390048 113.978371,39.211527 L113.978371,45.131688 L116.161136,45.131688 L116.161136,49.4344045 L109.377291,49.4344045 L109.377291,48.5550172 Z M105.796928,46.1209987 C106.540224,46.1209987 107.215461,46.0006076 107.82266,45.7598218 C108.429859,45.519036 108.948064,45.2259098 109.377291,44.8804345 L109.377291,42.807593 L105.608488,42.807593 C105.367702,42.807593 105.132155,42.8442338 104.901838,42.9175164 C104.671521,42.990799 104.464762,43.095487 104.281556,43.2315833 C104.098349,43.3676796 103.951786,43.5351803 103.841862,43.7340903 C103.731938,43.9330004 103.676977,44.1633138 103.676977,44.4250375 C103.676977,44.9066091 103.852329,45.3096576 104.203039,45.634195 C104.553749,45.9587325 105.08504,46.1209987 105.796928,46.1209987 Z M122.118848,33.1657393 L125.369441,33.1657393 L125.369441,37.2800156 L122.087442,37.2800156 L122.056035,44.1580806 C122.056035,44.5559007 122.087441,44.877816 122.150255,45.1238363 C122.213069,45.3698566 122.304671,45.5661465 122.425064,45.7127118 C122.545456,45.8592771 122.689402,45.9587306 122.856906,46.0110753 C123.024409,46.0634201 123.218081,46.089592 123.437929,46.089592 C123.835749,46.089592 124.186454,46.0503341 124.490053,45.971817 C124.793653,45.8932998 125.097248,45.8016979 125.400847,45.6970084 L126.076091,48.727754 C125.542175,49.0627603 124.948071,49.3297145 124.293762,49.5286246 C123.639452,49.7275346 122.862144,49.8269881 121.961815,49.8269881 C121.323209,49.8269881 120.713402,49.7170658 120.132375,49.4972179 C119.551349,49.2773699 119.040995,48.9449858 118.601299,48.5000555 C118.161603,48.0551251 117.810899,47.497662 117.549175,46.8276493 C117.287451,46.1576365 117.161826,45.3777115 117.172295,44.4878509 L117.219405,37.2800156 L114.879606,37.2800156 L114.879606,33.1657393 L117.235108,33.1657393 L117.266515,29.2713098 L122.150255,26.9472148 L122.118848,33.1657393 Z M141.694638,39.0859003 L137.281998,39.0859003 L137.281998,37.4056424 C136.852771,37.4056424 136.460191,37.4344316 136.104247,37.4920108 C135.748303,37.54959 135.436856,37.6464263 135.169898,37.7825227 C134.90294,37.918619 134.677861,38.1070572 134.494654,38.3478431 C134.311448,38.5886289 134.183205,38.8869895 134.109922,39.2429337 L134.109922,45.131688 L137.423328,45.131688 L137.423328,49.4344045 L126.807867,49.4344045 L126.807867,45.131688 L129.241886,45.131688 L129.241886,37.4684558 L126.839274,37.4684558 L126.839274,33.1657393 L134.078516,33.1657393 L134.078516,34.3120835 C134.539149,33.9456702 135.057355,33.6630129 135.633147,33.4641028 C136.208939,33.2651928 136.837067,33.1657393 137.517548,33.1657393 C138.208499,33.1657393 138.920377,33.1709737 139.653203,33.1814426 C140.38603,33.1919116 141.066501,33.197146 141.694638,33.197146 L141.694638,39.0859003 Z M142.630557,41.2372585 C142.630557,40.0542673 142.845168,38.9445754 143.274394,37.9081494 C143.703621,36.8717235 144.300343,35.966173 145.064576,35.1914708 C145.828809,34.4167685 146.739594,33.8043442 147.796958,33.3541794 C148.854322,32.9040146 150.016357,32.6789356 151.2831,32.6789356 C152.549843,32.6789356 153.714496,32.9040146 154.777095,33.3541794 C155.839693,33.8043442 156.753095,34.4167685 157.517328,35.1914708 C158.281561,35.966173 158.875665,36.8717235 159.299658,37.9081494 C159.72365,38.9445754 159.935643,40.0542673 159.935643,41.2372585 C159.935643,42.4202497 159.728885,43.5325589 159.315361,44.5742193 C158.901838,45.6158797 158.315585,46.5266646 157.556587,47.3066013 C156.797588,48.086538 155.886803,48.7015795 154.824205,49.1517443 C153.761606,49.6019091 152.58125,49.8269881 151.2831,49.8269881 C149.974482,49.8269881 148.788891,49.6019091 147.726293,49.1517443 C146.663694,48.7015795 145.755527,48.0891552 145.001762,47.3144529 C144.247998,46.5397507 143.664363,45.631583 143.250839,44.5899226 C142.837316,43.5482622 142.630557,42.4307187 142.630557,41.2372585 Z M147.325857,41.2372585 C147.325857,41.8549265 147.430545,42.4228584 147.639924,42.9410714 C147.849303,43.4592844 148.134578,43.9068252 148.495757,44.2837074 C148.856935,44.6605896 149.275687,44.9537157 149.752024,45.1630947 C150.228361,45.3724737 150.738715,45.4771616 151.2831,45.4771616 C151.837955,45.4771616 152.353543,45.3750909 152.82988,45.1709464 C153.306217,44.9668019 153.719734,44.6762929 154.070444,44.2994107 C154.421154,43.9225286 154.69596,43.4749877 154.89487,42.9567748 C155.09378,42.4385618 155.193233,41.8653954 155.193233,41.2372585 C155.193233,40.5881837 155.09378,40.0019313 154.89487,39.4784839 C154.69596,38.9550364 154.421154,38.5101128 154.070444,38.1436996 C153.719734,37.7772864 153.306217,37.4972462 152.82988,37.3035706 C152.353543,37.1098951 151.837955,37.0182932 151.2831,37.0287621 C150.738715,37.0182932 150.228361,37.1098951 149.752024,37.3035706 C149.275687,37.4972462 148.856935,37.7772864 148.495757,38.1436996 C148.134578,38.5101128 147.849303,38.9550364 147.639924,39.4784839 C147.430545,40.0019313 147.325857,40.5881837 147.325857,41.2372585 Z M170.835335,37.4213457 C170.673066,37.1910288 170.434901,36.9895046 170.120833,36.816767 C169.806764,36.6440293 169.422036,36.5053178 168.966637,36.4006283 C168.511238,36.2959388 167.99565,36.2435949 167.419857,36.2435949 C167.20001,36.2435949 166.964462,36.2619153 166.713207,36.2985566 C166.461952,36.3351979 166.229022,36.4006278 166.014408,36.4948484 C165.799795,36.5890689 165.621825,36.7173116 165.480494,36.8795803 C165.339164,37.041849 165.268499,37.2486077 165.268499,37.4998624 C165.268499,37.6254898 165.28682,37.7458809 165.323461,37.8610394 C165.360102,37.9761978 165.430767,38.0861201 165.535456,38.1908096 C165.640146,38.2954991 165.784091,38.3923354 165.967298,38.4813215 C166.150505,38.5703076 166.38867,38.6409719 166.6818,38.6933167 L169.634029,39.2743404 C170.701862,39.4837194 171.596944,39.7454392 172.319301,40.0595076 C173.041658,40.3735761 173.622676,40.7399838 174.062372,41.1587418 C174.502068,41.5774997 174.818749,42.043361 175.012425,42.5563395 C175.2061,43.069318 175.302937,43.6241639 175.302937,44.220894 C175.302937,45.1526305 175.085709,45.9691962 174.651248,46.6706158 C174.216786,47.3720354 173.646237,47.9556705 172.939583,48.4215387 C172.232929,48.887407 171.437301,49.2381115 170.552675,49.4736628 C169.668049,49.7092142 168.775584,49.8269881 167.875254,49.8269881 C167.288993,49.8269881 166.757702,49.7903473 166.281365,49.7170647 C165.805028,49.643782 165.375807,49.5443285 164.993691,49.4187011 C164.611574,49.2930738 164.271338,49.1438935 163.972973,48.9711558 C163.674608,48.7984182 163.399802,48.6073627 163.148548,48.3979837 L160.306242,48.3979837 L160.306242,44.0324539 L164.750289,44.0324539 L164.750289,44.1266739 C164.760758,44.4302735 164.854977,44.6946105 165.032949,44.9196929 C165.210921,45.1447753 165.443852,45.3358307 165.731748,45.4928649 C166.019644,45.6498992 166.346794,45.7676731 166.713207,45.8461902 C167.07962,45.9247073 167.466965,45.9639653 167.875254,45.9639653 C168.81746,45.9639653 169.503166,45.840957 169.932393,45.5949367 C170.36162,45.3489164 170.57623,45.0322354 170.57623,44.6448843 C170.57623,44.3412848 170.471542,44.0821822 170.262163,43.8675688 C170.052784,43.6529553 169.681142,43.4828374 169.147225,43.3572101 L166.132183,42.7133729 C164.237303,42.3469597 162.808313,41.7371526 161.84517,40.8839332 C160.882027,40.0307139 160.400462,38.934108 160.400462,37.5940825 C160.400462,36.8089114 160.583666,36.0944163 160.950079,35.450576 C161.316493,34.8067356 161.81376,34.257124 162.441897,33.8017248 C163.070034,33.3463255 163.805467,32.9930038 164.648217,32.741749 C165.490967,32.4904942 166.393901,32.3648687 167.357044,32.3648687 C168.016588,32.3648687 168.60284,32.4041267 169.115819,32.4826438 C169.628797,32.5611609 170.089424,32.6632316 170.497713,32.788859 C170.906002,32.9144864 171.264558,33.0636667 171.573392,33.2364043 C171.882226,33.409142 172.157032,33.5897287 172.397818,33.7781697 L175.1302,33.7781697 L175.1302,38.1436996 L171.078737,38.1436996 C171.078737,37.8924448 170.997604,37.6516626 170.835335,37.4213457 Z M186.532398,37.4213457 C186.37013,37.1910288 186.131965,36.9895046 185.817896,36.816767 C185.503828,36.6440293 185.1191,36.5053178 184.6637,36.4006283 C184.208301,36.2959388 183.692713,36.2435949 183.116921,36.2435949 C182.897073,36.2435949 182.661525,36.2619153 182.41027,36.2985566 C182.159016,36.3351979 181.926085,36.4006278 181.711472,36.4948484 C181.496858,36.5890689 181.318889,36.7173116 181.177558,36.8795803 C181.036227,37.041849 180.965563,37.2486077 180.965563,37.4998624 C180.965563,37.6254898 180.983883,37.7458809 181.020524,37.8610394 C181.057166,37.9761978 181.12783,38.0861201 181.23252,38.1908096 C181.337209,38.2954991 181.481155,38.3923354 181.664362,38.4813215 C181.847568,38.5703076 182.085733,38.6409719 182.378864,38.6933167 L185.331093,39.2743404 C186.398925,39.4837194 187.294007,39.7454392 188.016364,40.0595076 C188.738722,40.3735761 189.31974,40.7399838 189.759436,41.1587418 C190.199132,41.5774997 190.515813,42.043361 190.709488,42.5563395 C190.903164,43.069318 191,43.6241639 191,44.220894 C191,45.1526305 190.782773,45.9691962 190.348311,46.6706158 C189.91385,47.3720354 189.343301,47.9556705 188.636647,48.4215387 C187.929993,48.887407 187.134364,49.2381115 186.249738,49.4736628 C185.365112,49.7092142 184.472648,49.8269881 183.572318,49.8269881 C182.986057,49.8269881 182.454766,49.7903473 181.978428,49.7170647 C181.502091,49.643782 181.072871,49.5443285 180.690754,49.4187011 C180.308638,49.2930738 179.968402,49.1438935 179.670037,48.9711558 C179.371672,48.7984182 179.096866,48.6073627 178.845611,48.3979837 L176.003306,48.3979837 L176.003306,44.0324539 L180.447352,44.0324539 L180.447352,44.1266739 C180.457821,44.4302735 180.55204,44.6946105 180.730013,44.9196929 C180.907985,45.1447753 181.140915,45.3358307 181.428811,45.4928649 C181.716707,45.6498992 182.043857,45.7676731 182.41027,45.8461902 C182.776684,45.9247073 183.164029,45.9639653 183.572318,45.9639653 C184.514523,45.9639653 185.200229,45.840957 185.629456,45.5949367 C186.058683,45.3489164 186.273293,45.0322354 186.273293,44.6448843 C186.273293,44.3412848 186.168605,44.0821822 185.959226,43.8675688 C185.749847,43.6529553 185.378205,43.4828374 184.844289,43.3572101 L181.829247,42.7133729 C179.934367,42.3469597 178.505377,41.7371526 177.542234,40.8839332 C176.57909,40.0307139 176.097526,38.934108 176.097526,37.5940825 C176.097526,36.8089114 176.28073,36.0944163 176.647143,35.450576 C177.013556,34.8067356 177.510824,34.257124 178.138961,33.8017248 C178.767098,33.3463255 179.50253,32.9930038 180.345281,32.741749 C181.188031,32.4904942 182.090964,32.3648687 183.054108,32.3648687 C183.713651,32.3648687 184.299904,32.4041267 184.812882,32.4826438 C185.325861,32.5611609 185.786487,32.6632316 186.194776,32.788859 C186.603066,32.9144864 186.961622,33.0636667 187.270456,33.2364043 C187.57929,33.409142 187.854095,33.5897287 188.094881,33.7781697 L190.827263,33.7781697 L190.827263,38.1436996 L186.7758,38.1436996 C186.7758,37.8924448 186.694667,37.6516626 186.532398,37.4213457 Z" id="albatross"></path>
            </g>
        </g>
    </g>
</svg>