<?xml version="1.0" encoding="utf-8"?>
<!-- Generator: Adobe Illustrator 21.0.0, SVG Export Plug-In . SVG Version: 6.00 Build 0)  -->
<svg version="1.1" id="Layer_1" xmlns="http://www.w3.org/2000/svg" xmlns:xlink="http://www.w3.org/1999/xlink" x="0px" y="0px"
	 viewBox="0 0 16.9 17" style="enable-background:new 0 0 16.9 17;" xml:space="preserve">
<style type="text/css">
	.st0{fill:#56D694;}
</style>
<g id="Settings">
	<g id="Navbar_White-Navbar">
		<path id="albatross" class="st0" d="M10.1,15.8l-1,0.6l-0.9,0.4L7.3,17H6.2c-0.9,0-1.8-0.1-2.6-0.4c-0.7-0.2-1.3-0.6-1.9-1.1
			c-0.5-0.4-1-1-1.3-1.6c-0.6-1.3-0.6-2.9,0-4.2c0.3-0.6,0.8-1.2,1.3-1.6C2.3,7.6,3,7.2,3.7,7c0.9-0.3,1.8-0.4,2.7-0.4h2l1.7,0.3
			V6.5c0-0.4,0-0.8-0.2-1.1C9.7,5.1,9.5,4.9,9.2,4.7l-1-0.4H6.9C6,4.3,5.2,4.4,4.3,4.6L2.1,5.4L0.6,2.3C1.6,1.6,2.8,1,4,0.6
			C5.2,0.2,6.4,0,7.7,0c0.9,0,1.9,0.1,2.8,0.3c0.8,0.2,1.6,0.6,2.2,1.1c0.7,0.5,1.2,1.2,1.5,2c0.4,1,0.5,2,0.5,3v5.9h2.2v4.3h-6.8
			V15.8z M6.5,13.3c0.7,0,1.4-0.1,2-0.4c0.6-0.2,1.1-0.5,1.6-0.9v-2H5.7l-0.6,0.3l-0.4,0.5c-0.1,0.2-0.2,0.5-0.2,0.7
			c0,0.5,0.1,1,0.5,1.3C5.4,13.1,6,13.3,6.5,13.3z"/>
	</g>
</g>
</svg>
